<svg xmlns="http://www.w3.org/2000/svg" xmlns:xlink="http://www.w3.org/1999/xlink" aria-hidden="true" role="img" class="iconify iconify--logos" width="31.88" height="32" preserveAspectRatio="xMidYMid meet" viewBox="0 0 256 257"><defs><linearGradient id="IconifyId1813088fe136bc56b5" x1="-.828" x2="1" y1="-.828" y2="1"><stop offset="0" stop-color="#41D1FF"/><stop offset="1" stop-color="#BD34FE"/></linearGradient><linearGradient id="IconifyId1813088fe136bc56b6" x1="-.828" x2="1" y1="-.828" y2="1"><stop offset="0" stop-color="#FFEA83"/><stop offset=".083" stop-color="#FFDD35"/><stop offset="1" stop-color="#FFA800"/></linearGradient></defs><path fill="url(#IconifyId1813088fe136bc56b5)" d="M255.153 64.625L132.475 256.34s-2.61 4.31-7.83 4.31-7.83-4.31-7.83-4.31L.847 64.625s-4.31-5.22 2.61-10.439c6.92-5.22 10.44-2.61 10.44-2.61l116.406 177.061l116.406-177.061s3.52-2.61 10.44 2.61c6.92 5.219 2.61 10.439 2.61 10.439Z"/><path fill="url(#IconifyId1813088fe136bc56b6)" d="M188.858.322c-5.22-3.52-10.44 2.61-10.44 2.61L99.072 153.649L19.726 2.932s-5.22-6.13-10.44-2.61c-5.22 3.52.87 10.439.87 10.439l89.652 171.841l89.652-171.841s6.09-6.919.87-10.439Z"/></svg>